<svg width="100%" height="100%" viewBox="0 0 192 192" fill="none" xmlns="http://www.w3.org/2000/svg">
  <g fill-rule="evenodd">
    <rect width="24" height="24" fill="#F7F7F7" rx="2" />
    <rect x="48" width="24" height="24" fill="#F7F7F7" rx="2" />
    <rect x="96" width="24" height="24" fill="#F7F7F7" rx="2" />
    <rect x="144" width="24" height="24" fill="#F7F7F7" rx="2" />
    <rect x="192" width="24" height="24" fill="#F7F7F7" rx="2" />
    <rect y="48" width="24" height="24" fill="#F7F7F7" rx="2" />
    <rect x="48" y="48" width="24" height="24" fill="#F7F7F7" rx="2" />
    <rect x="96" y="48" width="24" height="24" fill="#F7F7F7" rx="2" />
    <rect x="144" y="48" width="24" height="24" fill="#F7F7F7" rx="2" />
    <rect x="192" y="48" width="24" height="24" fill="#F7F7F7" rx="2" />
    <rect y="96" width="24" height="24" fill="#F7F7F7" rx="2" />
    <rect x="48" y="96" width="24" height="24" fill="#F7F7F7" rx="2" />
    <rect x="96" y="96" width="24" height="24" fill="#F7F7F7" rx="2" />
    <rect x="144" y="96" width="24" height="24" fill="#F7F7F7" rx="2" />
    <rect x="192" y="96" width="24" height="24" fill="#F7F7F7" rx="2" />
    <rect y="144" width="24" height="24" fill="#F7F7F7" rx="2" />
    <rect x="48" y="144" width="24" height="24" fill="#F7F7F7" rx="2" />
    <rect x="96" y="144" width="24" height="24" fill="#F7F7F7" rx="2" />
    <rect x="144" y="144" width="24" height="24" fill="#F7F7F7" rx="2" />
    <rect x="192" y="144" width="24" height="24" fill="#F7F7F7" rx="2" />
  </g>
</svg>
